<?xml version="1.0" encoding="utf-8"?>
<!-- Generator: Adobe Illustrator 21.0.0, SVG Export Plug-In . SVG Version: 6.00 Build 0)  -->
<svg version="1.1" id="Capa_1" xmlns="http://www.w3.org/2000/svg" xmlns:xlink="http://www.w3.org/1999/xlink" x="0px" y="0px"
	 viewBox="0 0 83 113" style="enable-background:new 0 0 83 113;" xml:space="preserve">
<style type="text/css">
	.st0{fill:url(#SVGID_1_);}
	.st1{fill:url(#SVGID_2_);}
	.st2{fill:url(#SVGID_3_);}
	.st3{fill:#E6501E;}
	.st4{fill:url(#SVGID_4_);}
	.st5{fill:#F2F2EA;}
	.st6{fill:#1A255C;}
	.st7{fill:url(#SVGID_5_);}
</style>
<g>
	<g>
		<g>
			
				<linearGradient id="SVGID_1_" gradientUnits="userSpaceOnUse" x1="0.9891" y1="21.3834" x2="51.9371" y2="21.3834" gradientTransform="matrix(-1 0 0 1 81.3613 0)">
				<stop  offset="0" style="stop-color:#EC8502"/>
				<stop  offset="1" style="stop-color:#F7B203"/>
			</linearGradient>
			<path class="st0" d="M46.9,24.9C62,24.9,77.7,13,80.4,0v8.8c0,18.7-15,33.9-33.5,33.9H29.4V24.9H46.9z"/>
		</g>
		<g>
			
				<linearGradient id="SVGID_2_" gradientUnits="userSpaceOnUse" x1="14.4257" y1="21.3834" x2="59.147" y2="21.3834" gradientTransform="matrix(-1 0 0 1 81.3613 0)">
				<stop  offset="0" style="stop-color:#EC8502"/>
				<stop  offset="1" style="stop-color:#F7B203"/>
			</linearGradient>
			<path class="st1" d="M33.5,24.9C48.6,24.9,64.3,13,66.9,0v8.8c0,18.7-15,33.9-33.5,33.9H22.2V24.9H33.5z"/>
		</g>
		<g>
			
				<linearGradient id="SVGID_3_" gradientUnits="userSpaceOnUse" x1="27.8623" y1="21.155" x2="55.8698" y2="21.155" gradientTransform="matrix(-1 0 0 1 81.3613 0)">
				<stop  offset="0" style="stop-color:#EC8502"/>
				<stop  offset="1" style="stop-color:#F7B203"/>
			</linearGradient>
			<path class="st2" d="M53.5,0v8.8c0,16.9-12.1,30.8-28,33.5V24.4C38.7,22,51.2,11.5,53.5,0z"/>
		</g>
		<g>
			<path class="st3" d="M56.8,112.7l0-52.2H28.1v23.2C27.6,102.7,41,112.7,56.8,112.7z"/>
			
				<linearGradient id="SVGID_4_" gradientUnits="userSpaceOnUse" x1="52.4589" y1="31.174" x2="52.4589" y2="107.5788" gradientTransform="matrix(-1 0 0 1 81.3613 0)">
				<stop  offset="0" style="stop-color:#4BB7B1"/>
				<stop  offset="0.1844" style="stop-color:#48B2B0"/>
				<stop  offset="0.3993" style="stop-color:#41A4AD"/>
				<stop  offset="0.6293" style="stop-color:#348DA9"/>
				<stop  offset="0.8684" style="stop-color:#226CA3"/>
				<stop  offset="1" style="stop-color:#17579F"/>
			</linearGradient>
			<path class="st4" d="M28.1,73.6V51H1c0.1-15.3,12.6-27.7,27.9-27.7c15.1,0,27.5,12.1,27.9,27.1h0v52.2c-14.2,0-26.5-8-28.4-23.5
				c-0.1,0-0.1,0-0.2,0v-1.8C28.1,76.2,28.1,74.9,28.1,73.6z"/>
			<circle class="st5" cx="28.1" cy="51.3" r="17.1"/>
			<path class="st6" d="M1,51.3c0-0.1,0-0.2,0-0.2h27.2v28.1C13.1,78.8,1,66.5,1,51.3z"/>
			<path class="st3" d="M28.2,51v28.1c-6-0.1-11.5-2.2-16-5.6L28.2,51L28.2,51z"/>
			
				<linearGradient id="SVGID_5_" gradientUnits="userSpaceOnUse" x1="53.1859" y1="62.3295" x2="80.3722" y2="62.3295" gradientTransform="matrix(-1 0 0 1 81.3613 0)">
				<stop  offset="0" style="stop-color:#EC8502"/>
				<stop  offset="1" style="stop-color:#F7B203"/>
			</linearGradient>
			<path class="st7" d="M1,51.3c0-0.1,0-0.2,0-0.2h27.2l-16,22.6C5.4,68.5,1,60.4,1,51.3z"/>
			<circle class="st6" cx="32.8" cy="45.6" r="2.3"/>
		</g>
	</g>
</g>
</svg>
