<?xml version="1.0" encoding="utf-8"?>
<!-- Generator: Adobe Illustrator 21.0.0, SVG Export Plug-In . SVG Version: 6.00 Build 0)  -->
<svg version="1.1" id="Capa_1" xmlns="http://www.w3.org/2000/svg" xmlns:xlink="http://www.w3.org/1999/xlink" x="0px" y="0px"
	 viewBox="0 0 350 113" style="enable-background:new 0 0 350 113;" xml:space="preserve">
<style type="text/css">
	.st0{fill:#FFFFFF;}
	.st1{fill:url(#SVGID_1_);}
	.st2{fill:url(#SVGID_2_);}
	.st3{fill:url(#SVGID_3_);}
	.st4{fill:#E6501E;}
	.st5{fill:url(#SVGID_4_);}
	.st6{fill:#F2F2EA;}
	.st7{fill:#1A255C;}
	.st8{fill:url(#SVGID_5_);}
	.st9{fill:#FF8000;}
</style>
<g>
	<path class="st0" d="M103.1,90.9v-7.6h3.3c0.6,0,1.2,0.3,1.7,0.8c0.5,0.5,0.8,1.1,0.8,1.9s-0.3,1.4-0.8,1.9
		c-0.5,0.5-1.1,0.8-1.7,0.8h-1.5V91h-1.7V90.9z M104.8,86.9h1.4c0.2,0,0.5,0,0.6-0.3c0.2-0.2,0.3-0.5,0.3-0.8c0-0.3-0.2-0.6-0.3-0.8
		c-0.2-0.2-0.5-0.3-0.6-0.3h-1.4V86.9z"/>
	<path class="st0" d="M113.9,84.4c0.8-0.8,1.7-1.1,2.9-1.1c1.2,0,2,0.3,2.9,1.1c0.8,0.8,1.2,1.7,1.2,2.8s-0.5,2-1.2,2.8
		s-1.7,1.1-2.9,1.1c-1.1,0-2-0.3-2.9-1.1c-0.8-0.8-1.2-1.7-1.2-2.8S113.2,85,113.9,84.4z M115.2,88.9c0.5,0.5,1.1,0.6,1.7,0.6
		c0.6,0,1.2-0.2,1.7-0.8c0.5-0.5,0.8-1.1,0.8-1.7c0-0.6-0.2-1.2-0.6-1.7c-0.5-0.5-1.1-0.8-1.7-0.8s-1.2,0.3-1.7,0.8
		c-0.5,0.5-0.6,1.1-0.6,1.7C114.4,87.8,114.7,88.4,115.2,88.9z"/>
	<path class="st0" d="M125.3,90.9v-7.6h2.9c1.2,0,2.3,0.3,2.9,1.1c0.8,0.8,1.1,1.5,1.1,2.8c0,1.2-0.3,2-1.1,2.8
		c-0.6,0.6-1.7,1.1-2.9,1.1h-2.9V90.9z M127,89.3h1.1c1.9,0,2.5-0.9,2.5-2.3c0-0.8-0.2-1.2-0.6-1.7c-0.3-0.5-0.9-0.6-1.9-0.6H127
		V89.3z"/>
	<path class="st0" d="M143.4,84.5l-1.1,0.9c-0.5-0.6-1.1-0.9-1.9-0.9c-0.6,0-1.2,0.2-1.7,0.6c-0.5,0.5-0.8,1.1-0.8,1.7
		s0.2,1.2,0.6,1.7c0.5,0.5,1.1,0.6,1.7,0.6c0.8,0,1.4-0.3,2-0.9l1.1,0.9c-0.8,0.9-1.9,1.4-3.1,1.4c-1.1,0-2.2-0.3-2.9-1.1
		s-1.2-1.7-1.2-2.8c0-1.1,0.5-2,1.2-2.8s1.7-1.1,2.9-1.1C141.5,83.1,142.6,83.8,143.4,84.5z"/>
	<path class="st0" d="M147.1,90.9l4-8.1l4,8.1h-1.9l-0.6-1.2h-3.3l-0.6,1.2H147.1z M150,88.3h1.9l-0.9-2L150,88.3z"/>
	<path class="st0" d="M159.5,88.6c0.5,0.6,1.1,0.9,1.9,0.9s1.1-0.3,1.1-0.8c0-0.3-0.2-0.5-0.5-0.6c-0.2-0.2-0.5-0.2-0.6-0.3
		c-0.2,0-0.6-0.2-0.8-0.3c-1.2-0.5-1.9-1.1-1.9-2.2c0-0.6,0.3-1.2,0.8-1.5c0.5-0.5,1.1-0.6,1.9-0.6c1.1,0,2,0.5,2.5,1.2l-1.1,0.8
		c-0.3-0.5-0.8-0.6-1.4-0.6s-0.9,0.3-0.9,0.6s0,0.5,0.3,0.6c0.2,0,0.3,0.2,0.3,0.2l0.6,0.2c0.3,0.2,0.5,0.2,0.6,0.3
		c1.4,0.5,2,1.2,2,2.3c0,1.4-0.9,2.3-2.8,2.3c-1.5,0-2.6-0.6-3.1-1.7L159.5,88.6z"/>
	<path class="st0" d="M169.7,90.9v-6h-2v-1.5h5.7v1.5h-2v6H169.7z"/>
	<path class="st0" d="M184.6,90.9v-7.6h1.7v6h2.9v1.5H184.6z"/>
	<path class="st0" d="M192.8,90.9l4-8.1l4,8.1H199l-0.6-1.2h-3.3l-0.6,1.2H192.8z M195.9,88.3h1.9l-0.9-2L195.9,88.3z"/>
	<path class="st0" d="M205.3,90.9v-6h-2v-1.5h5.7v1.5h-2v6H205.3z"/>
	<path class="st0" d="M213.4,90.9v-7.6h1.7v7.6H213.4z"/>
	<path class="st0" d="M219.8,90.9V83l5.1,4.6v-4.3h1.7v7.9l-5.1-4.6v4.3H219.8z"/>
	<path class="st0" d="M232.2,84.4c0.8-0.8,1.7-1.1,2.9-1.1c1.1,0,2,0.3,2.9,1.1c0.8,0.8,1.2,1.7,1.2,2.8s-0.5,2-1.2,2.8
		s-1.7,1.1-2.9,1.1c-1.1,0-2-0.3-2.9-1.1c-0.8-0.8-1.2-1.7-1.2-2.8S231.4,85,232.2,84.4z M233.4,88.9c0.5,0.5,1.1,0.6,1.7,0.6
		s1.2-0.2,1.7-0.8c0.5-0.5,0.8-1.1,0.8-1.7c0-0.6-0.2-1.2-0.6-1.7c-0.5-0.5-1.1-0.8-1.7-0.8s-1.2,0.3-1.7,0.8
		c-0.5,0.5-0.6,1.1-0.6,1.7C232.6,87.8,232.9,88.4,233.4,88.9z"/>
	<path class="st0" d="M250.7,90.9v-7.6h5.3v1.5h-3.6v1.4h3.3v1.5h-3.3v1.5h3.6v1.5H250.7z"/>
	<path class="st0" d="M260.5,90.9V83l5.1,4.6v-4.3h1.7v7.9l-5.1-4.6v4.3H260.5z"/>
	<path class="st0" d="M279.7,90.9v-7.6h5.3v1.5h-3.6v1.4h3.3v1.5h-3.3v1.5h3.6v1.5H279.7z"/>
	<path class="st0" d="M289.5,83.3h1.7v4.3c0,1.2,0.5,1.9,1.5,1.9s1.5-0.6,1.5-1.9v-4.3h1.7v4.5c0,1.1-0.3,1.9-0.9,2.3
		c-0.6,0.6-1.4,0.8-2.3,0.8s-1.7-0.3-2.3-0.8c-0.6-0.6-0.9-1.4-0.9-2.3V83.3z"/>
	<path class="st0" d="M300.6,90.9v-7.6h3.3c0.8,0,1.4,0.3,1.9,0.8c0.5,0.5,0.8,1.1,0.8,1.7c0,0.9-0.5,1.9-1.4,2.2l1.9,2.9h-1.9
		l-1.5-2.5l0,0h-1.1v2.5H300.6z M302.3,86.9h1.4c0.6,0,1.1-0.5,1.1-1.1c0-0.6-0.5-0.9-0.9-0.9h-1.5L302.3,86.9L302.3,86.9z"/>
	<path class="st0" d="M311.8,84.4c0.8-0.8,1.7-1.1,2.9-1.1c1.1,0,2,0.3,2.9,1.1c0.8,0.8,1.2,1.7,1.2,2.8s-0.5,2-1.2,2.8
		c-0.8,0.8-1.7,1.1-2.9,1.1c-1.1,0-2-0.3-2.9-1.1c-0.8-0.8-1.2-1.7-1.2-2.8S310.9,85,311.8,84.4z M312.9,88.9
		c0.5,0.5,1.1,0.6,1.7,0.6c0.6,0,1.2-0.2,1.7-0.8c0.5-0.5,0.8-1.1,0.8-1.7c0-0.6-0.2-1.2-0.6-1.7s-1.1-0.8-1.7-0.8
		c-0.6,0-1.2,0.3-1.7,0.8c-0.5,0.5-0.6,1.1-0.6,1.7C312.2,87.8,312.4,88.4,312.9,88.9z"/>
	<path class="st0" d="M323.1,90.9v-7.6h3.3c0.6,0,1.2,0.3,1.7,0.8c0.5,0.5,0.8,1.1,0.8,1.9s-0.3,1.4-0.8,1.9
		c-0.5,0.5-1.1,0.8-1.7,0.8h-1.5V91h-1.7V90.9z M324.8,86.9h1.4c0.2,0,0.5,0,0.6-0.3c0.2-0.2,0.3-0.5,0.3-0.8c0-0.3-0.2-0.6-0.3-0.8
		c-0.2-0.2-0.5-0.3-0.6-0.3h-1.4V86.9z"/>
	<path class="st0" d="M331.6,90.9l4-8.1l4,8.1h-1.9l-0.6-1.2h-3.3l-0.6,1.2H331.6z M334.7,88.3h1.9l-0.9-2L334.7,88.3z"/>
</g>
<g>
	<g>
		<g>
			
				<linearGradient id="SVGID_1_" gradientUnits="userSpaceOnUse" x1="1" y1="93.3" x2="51.948" y2="93.3" gradientTransform="matrix(1 0 0 -1 0 114.6501)">
				<stop  offset="0" style="stop-color:#EC8502"/>
				<stop  offset="1" style="stop-color:#F7B203"/>
			</linearGradient>
			<path class="st1" d="M34.5,24.9C19.4,24.9,3.6,13,1,0v8.8c0,18.7,15,33.9,33.5,33.9H52V24.9H34.5z"/>
		</g>
		<g>
			
				<linearGradient id="SVGID_2_" gradientUnits="userSpaceOnUse" x1="14.4" y1="93.3" x2="59.1213" y2="93.3" gradientTransform="matrix(1 0 0 -1 0 114.6501)">
				<stop  offset="0" style="stop-color:#EC8502"/>
				<stop  offset="1" style="stop-color:#F7B203"/>
			</linearGradient>
			<path class="st2" d="M47.9,24.9C32.8,24.9,17.1,13,14.4,0v8.8c0,18.7,15,33.9,33.5,33.9h11.3V24.9H47.9z"/>
		</g>
		<g>
			
				<linearGradient id="SVGID_3_" gradientUnits="userSpaceOnUse" x1="27.8623" y1="93.5" x2="55.8623" y2="93.5" gradientTransform="matrix(1 0 0 -1 0 114.6501)">
				<stop  offset="0" style="stop-color:#EC8502"/>
				<stop  offset="1" style="stop-color:#F7B203"/>
			</linearGradient>
			<path class="st3" d="M27.9,0v8.8c0,16.9,12.1,30.8,28,33.5V24.4C42.6,22,30.2,11.5,27.9,0z"/>
		</g>
		<g>
			<path class="st4" d="M24.6,112.7V60.5h28.7v23.2C53.8,102.7,40.4,112.7,24.6,112.7z"/>
			
				<linearGradient id="SVGID_4_" gradientUnits="userSpaceOnUse" x1="52.5" y1="83.476" x2="52.5" y2="7.0712" gradientTransform="matrix(1 0 0 -1 0 114.6501)">
				<stop  offset="0" style="stop-color:#4BB7B1"/>
				<stop  offset="0.1844" style="stop-color:#48B2B0"/>
				<stop  offset="0.3993" style="stop-color:#41A4AD"/>
				<stop  offset="0.6293" style="stop-color:#348DA9"/>
				<stop  offset="0.8684" style="stop-color:#226CA3"/>
				<stop  offset="1" style="stop-color:#17579F"/>
			</linearGradient>
			<path class="st5" d="M53.3,73.6V51h27.1c-0.1-15.3-12.6-27.7-27.9-27.7c-15.1,0-27.5,12.1-27.9,27.1l0,0v52.2
				c14.2,0,26.5-8,28.4-23.5c0.1,0,0.1,0,0.2,0v-1.8C53.3,76.2,53.3,74.9,53.3,73.6z"/>
			<circle class="st6" cx="53.3" cy="51.3" r="17.1"/>
			<path class="st7" d="M80.4,51.3c0-0.1,0-0.2,0-0.2H53.2v28.1C68.3,78.8,80.4,66.5,80.4,51.3z"/>
			<path class="st4" d="M53.2,51v28.1c6-0.1,11.5-2.2,16-5.6L53.2,51L53.2,51z"/>
			
				<linearGradient id="SVGID_5_" gradientUnits="userSpaceOnUse" x1="53.2" y1="52.25" x2="80.4" y2="52.25" gradientTransform="matrix(1 0 0 -1 0 114.6501)">
				<stop  offset="0" style="stop-color:#EC8502"/>
				<stop  offset="1" style="stop-color:#F7B203"/>
			</linearGradient>
			<path class="st8" d="M80.4,51.3c0-0.1,0-0.2,0-0.2H53.2l16,22.6C76,68.5,80.4,60.4,80.4,51.3z"/>
			<circle class="st7" cx="48.6" cy="45.6" r="2.3"/>
		</g>
	</g>
</g>
<g>
	<path class="st9" d="M115.5,36.6c8.4,0,13.3,1.9,13.3,7.8c0,4.6-2.9,7-7.9,7.8v0.1c6,0.8,9.5,3.3,9.5,8.3c0,7.4-6.2,9.4-15.2,9.4
		h-14v-0.9h3.1V37.5h-3.1v-0.9H115.5z M113.6,52.2h1.2c3.4,0,4.4-2.2,4.4-6.1v-2.2c0-4.6-0.8-6.3-4.2-6.3h-1.5V52.2z M113.6,69.1
		h2.2c3.7,0,4.7-2.8,4.7-7.2v-2.5c0-3.9-1.2-6.3-5.9-6.3h-1.1V69.1z"/>
	<path class="st9" d="M145,58.8v-3.7c0-6.1-0.5-7.6-2.4-7.6c-0.9,0-2.2,0.4-2.2,1.9c0,0.4,0.1,0.9,0.3,1.4h1.2
		c0.2,0.6,0.4,1.2,0.4,2.1c0,2.2-1.8,3.7-4.2,3.7c-3,0-4.1-1.6-4.1-4c0-4,3.5-5.9,10-5.9c7.5,0,10,2.1,10,9v9.7c0,2,0.6,2.5,1.4,2.5
		c0.9,0,1.7-0.9,1.9-4.9l0.7,0c-0.2,5.7-2,7.4-6.1,7.4c-3.9,0-6-1.2-6.6-3.5c-0.8,2.3-2.1,3.5-5.5,3.5c-3.3,0-7.1-1-7.1-5.8
		c0-4.8,4.2-5.9,11-5.9H145z M145,64v-4.4h-0.3c-2,0-3,1.4-3,4.3v0.8c0,3.4,0.3,3.9,1.2,3.9C143.8,68.6,145,67,145,64z"/>
	<path class="st9" d="M169.9,50.9c1-2.4,2.8-4.1,6.4-4.1c5.4,0,8.7,3.7,8.7,11.9s-3.3,11.8-9.8,11.8c-3.3,0-4.9-0.9-5.6-3.3
		l-0.3,2.8h-10.9v-0.9h2.6V35.1h-2.6v-0.9h11.5V50.9z M169.9,55.3v8.9c0,2.6,1.1,4.9,3.1,4.9c2.3,0,2.8-2.8,2.8-9.5v-2.5
		c0-6.7-0.6-8.3-2.2-8.3C171.6,48.9,169.9,51.1,169.9,55.3z"/>
	<path class="st9" d="M198.9,46.8c7.5,0,10.7,3.8,10.4,10.9h-13.5v1.9c0,5.6,1,9.5,5.6,9.5c3.5,0,5.9-2.2,7-5.9l0.9,0.1
		c-1.1,4.1-3.6,7.3-10.4,7.3c-8.5,0-12.3-4.9-12.3-11.8C186.7,50.4,192.3,46.8,198.9,46.8z M200.8,56.7v-2.3c0-5-0.4-6.7-2.3-6.7
		c-1.7,0-2.6,1.6-2.6,6.7v2.3H200.8z"/>
	<path class="st9" d="M222.6,34.2v34.9h2.7V70h-14.2v-0.9h2.6V35.1h-2.8v-0.9H222.6z"/>
	<path class="st9" d="M239,58.8v-3.7c0-6.1-0.5-7.6-2.4-7.6c-0.9,0-2.2,0.4-2.2,1.9c0,0.4,0.1,0.9,0.3,1.4h1.2
		c0.2,0.6,0.4,1.2,0.4,2.1c0,2.2-1.8,3.7-4.2,3.7c-3,0-4.1-1.6-4.1-4c0-4,3.5-5.9,10-5.9c7.5,0,10,2.1,10,9v9.7c0,2,0.6,2.5,1.4,2.5
		c0.9,0,1.7-0.9,1.9-4.9l0.7,0c-0.2,5.7-2,7.4-6.1,7.4c-3.9,0-6-1.2-6.6-3.5c-0.8,2.3-2.1,3.5-5.5,3.5c-3.3,0-7.1-1-7.1-5.8
		c0-4.8,4.2-5.9,11-5.9H239z M239,64v-4.4h-0.3c-2,0-3,1.4-3,4.3v0.8c0,3.4,0.3,3.9,1.2,3.9C237.9,68.6,239,67,239,64z"/>
	<path class="st9" d="M254,48.1h-2.6v-0.9h2.6v-6.2l8.9-2.2v8.4h6.2v0.9h-6.2v16.1c0,2.8,0.4,4.3,2.1,4.3c2.3,0,3.7-2.1,4.2-5.3
		l0.8,0.1c-0.4,3.7-2,7.2-7.8,7.2c-4.7,0-8.1-1.4-8.1-7.3V48.1z"/>
	<path class="st9" d="M282,47.3v21.9h2.7V70h-14.2v-0.9h2.6v-21h-2.8v-0.9H282z M277.7,35.1c3,0,4.7,1.5,4.7,4.4
		c0,2.5-1.4,4.5-4.8,4.5c-3.9,0-4.8-2.4-4.8-4.4C272.8,37.2,274.1,35.1,277.7,35.1z"/>
	<path class="st9" d="M297.2,47.3v4.4c0.8-2.4,2.4-4.9,7.1-4.9c4.4,0,7.4,2.2,7.4,8v14.4h2.7V70h-13.5v-0.9h2V53.6
		c0-4.1-0.6-4.5-1.8-4.5c-2,0-3.9,3-3.9,6.9v13.2h2.1V70h-13.6v-0.9h2.6v-21h-2.6v-0.9H297.2z"/>
	<path class="st9" d="M327.8,46.8c8,0,11.8,3.8,11.8,11.5c0,7.8-3.6,12.2-12.1,12.2c-8,0-12.1-4.3-12.1-11.7
		C315.4,50.9,320.1,46.8,327.8,46.8z M330.4,56.5c0-5.2-0.1-8.9-2.8-8.9c-2.9,0-3.1,3.7-3.1,9.1v3.7c0,5.5,0.1,9.1,3,9.1
		c2.7,0,2.9-2.8,2.9-9V56.5z"/>
</g>
</svg>
